<?xml version="1.0" encoding="UTF-8" standalone="no"?><svg xmlns="http://www.w3.org/2000/svg" xmlns:xlink="http://www.w3.org/1999/xlink" contentScriptType="application/ecmascript" contentStyleType="text/css" height="679px" preserveAspectRatio="none" style="width:1137px;height:679px;" version="1.1" viewBox="0 0 1137 679" width="1137px" zoomAndPan="magnify"><defs><filter height="300%" id="f1agx7p8rv9hf9" width="300%" x="-1" y="-1"><feGaussianBlur result="blurOut" stdDeviation="2.0"/><feColorMatrix in="blurOut" result="blurOut2" type="matrix" values="0 0 0 0 0 0 0 0 0 0 0 0 0 0 0 0 0 0 .4 0"/><feOffset dx="4.0" dy="4.0" in="blurOut2" result="blurOut3"/><feBlend in="SourceGraphic" in2="blurOut3" mode="normal"/></filter></defs><g><text fill="#000000" font-family="sans-serif" font-size="18" lengthAdjust="spacingAndGlyphs" textLength="176" x="471.5" y="16.708">Example - AWS IOT</text><!--MD5=[eba421ac8e20ac42f3ee759fe6c4cf96]
cluster Device--><polygon fill="#FFFFFF" filter="url(#f1agx7p8rv9hf9)" points="16,26.9531,74,26.9531,81,49.25,164,49.25,164,378.9531,16,378.9531,16,26.9531" style="stroke: #000000; stroke-width: 1.5;"/><line style="stroke: #000000; stroke-width: 1.5;" x1="16" x2="81" y1="49.25" y2="49.25"/><text fill="#000000" font-family="sans-serif" font-size="14" font-weight="bold" lengthAdjust="spacingAndGlyphs" textLength="52" x="20" y="41.9482">Device</text><!--MD5=[5ffbb9a39312e00e581c70d226bbc83f]
cluster iot--><polygon fill="#FFFFFF" filter="url(#f1agx7p8rv9hf9)" points="188,219.9531,274,219.9531,281,242.25,735,242.25,735,667.9531,188,667.9531,188,219.9531" style="stroke: #000000; stroke-width: 1.5;"/><line style="stroke: #000000; stroke-width: 1.5;" x1="188" x2="281" y1="242.25" y2="242.25"/><text fill="#000000" font-family="sans-serif" font-size="14" font-weight="bold" lengthAdjust="spacingAndGlyphs" textLength="80" x="192" y="234.9482">AWS - IOT</text><!--MD5=[5dde1afecde6723618d60890fe7f2ddc]
cluster IOTThing--><polygon fill="#FFFFFF" filter="url(#f1agx7p8rv9hf9)" points="509,262.9531,592,262.9531,599,285.25,711,285.25,711,643.9531,509,643.9531,509,262.9531" style="stroke: #000000; stroke-width: 1.5;"/><line style="stroke: #000000; stroke-width: 1.5;" x1="509" x2="599" y1="285.25" y2="285.25"/><text fill="#000000" font-family="sans-serif" font-size="14" font-weight="bold" lengthAdjust="spacingAndGlyphs" textLength="77" x="513" y="277.9482">IoT Thing</text><!--MD5=[9dd75fd92da113d30380b27734fd2f01]
cluster Service--><polygon fill="#FFFFFF" filter="url(#f1agx7p8rv9hf9)" points="759,262.9531,911,262.9531,918,285.25,921,285.25,921,378.9531,759,378.9531,759,262.9531" style="stroke: #000000; stroke-width: 1.5;"/><line style="stroke: #000000; stroke-width: 1.5;" x1="759" x2="918" y1="285.25" y2="285.25"/><text fill="#000000" font-family="sans-serif" font-size="14" font-weight="bold" lengthAdjust="spacingAndGlyphs" textLength="146" x="763" y="277.9482">AWS Service - SNS</text><!--MD5=[b177375648c0515ac53566b92066499c]
cluster Subscribers--><polygon fill="#FFFFFF" filter="url(#f1agx7p8rv9hf9)" points="945,262.9531,1046,262.9531,1053,285.25,1115,285.25,1115,619.4531,945,619.4531,945,262.9531" style="stroke: #000000; stroke-width: 1.5;"/><line style="stroke: #000000; stroke-width: 1.5;" x1="945" x2="1053" y1="285.25" y2="285.25"/><text fill="#000000" font-family="sans-serif" font-size="14" font-weight="bold" lengthAdjust="spacingAndGlyphs" textLength="95" x="949" y="277.9482">Subscribers</text><!--MD5=[002537d386d1f68a9aa978f7fb49d1b7]
entity device--><rect fill="#FEFECE" filter="url(#f1agx7p8rv9hf9)" height="46.2969" style="stroke: #A80036; stroke-width: 1.5;" width="87" x="53.5" y="80.9531"/><rect fill="#FEFECE" height="10" style="stroke: #A80036; stroke-width: 1.5;" width="15" x="120.5" y="85.9531"/><rect fill="#FEFECE" height="2" style="stroke: #A80036; stroke-width: 1.5;" width="4" x="118.5" y="87.9531"/><rect fill="#FEFECE" height="2" style="stroke: #A80036; stroke-width: 1.5;" width="4" x="118.5" y="91.9531"/><text fill="#000000" font-family="sans-serif" font-size="14" lengthAdjust="spacingAndGlyphs" textLength="47" x="68.5" y="113.9482">device</text><!--MD5=[41cc97cca0fc40f6265874b6ddd0fc3b]
entity cert--><rect fill="#FEFECE" filter="url(#f1agx7p8rv9hf9)" height="46.2969" style="stroke: #A80036; stroke-width: 1.5;" width="116" x="32" y="316.9531"/><rect fill="#FEFECE" height="10" style="stroke: #A80036; stroke-width: 1.5;" width="15" x="128" y="321.9531"/><rect fill="#FEFECE" height="2" style="stroke: #A80036; stroke-width: 1.5;" width="4" x="126" y="323.9531"/><rect fill="#FEFECE" height="2" style="stroke: #A80036; stroke-width: 1.5;" width="4" x="126" y="327.9531"/><text fill="#000000" font-family="sans-serif" font-size="14" lengthAdjust="spacingAndGlyphs" textLength="76" x="47" y="349.9482">certificate</text><!--MD5=[9d6ce6b86129f00e52feb8476ad95e9d]
entity iottopic--><rect fill="#FEFECE" filter="url(#f1agx7p8rv9hf9)" height="46.2969" style="stroke: #A80036; stroke-width: 1.5;" width="106" x="204" y="316.9531"/><rect fill="#FEFECE" height="10" style="stroke: #A80036; stroke-width: 1.5;" width="15" x="290" y="321.9531"/><rect fill="#FEFECE" height="2" style="stroke: #A80036; stroke-width: 1.5;" width="4" x="288" y="323.9531"/><rect fill="#FEFECE" height="2" style="stroke: #A80036; stroke-width: 1.5;" width="4" x="288" y="327.9531"/><text fill="#000000" font-family="sans-serif" font-size="14" lengthAdjust="spacingAndGlyphs" textLength="66" x="219" y="349.9482">IoT Topic</text><!--MD5=[ef95eb2210feb4535357f6b1df740c69]
entity IR--><rect fill="#FEFECE" filter="url(#f1agx7p8rv9hf9)" height="46.2969" style="stroke: #A80036; stroke-width: 1.5;" width="97" x="395.5" y="316.9531"/><rect fill="#FEFECE" height="10" style="stroke: #A80036; stroke-width: 1.5;" width="15" x="472.5" y="321.9531"/><rect fill="#FEFECE" height="2" style="stroke: #A80036; stroke-width: 1.5;" width="4" x="470.5" y="323.9531"/><rect fill="#FEFECE" height="2" style="stroke: #A80036; stroke-width: 1.5;" width="4" x="470.5" y="327.9531"/><text fill="#000000" font-family="sans-serif" font-size="14" lengthAdjust="spacingAndGlyphs" textLength="57" x="410.5" y="349.9482">IoT Rule</text><!--MD5=[b8597a4d83f4f9618e55e64c433cba89]
entity IAMRole--><rect fill="#FEFECE" filter="url(#f1agx7p8rv9hf9)" height="46.2969" style="stroke: #A80036; stroke-width: 1.5;" width="102" x="376" y="425.9531"/><rect fill="#FEFECE" height="10" style="stroke: #A80036; stroke-width: 1.5;" width="15" x="458" y="430.9531"/><rect fill="#FEFECE" height="2" style="stroke: #A80036; stroke-width: 1.5;" width="4" x="456" y="432.9531"/><rect fill="#FEFECE" height="2" style="stroke: #A80036; stroke-width: 1.5;" width="4" x="456" y="436.9531"/><text fill="#000000" font-family="sans-serif" font-size="14" lengthAdjust="spacingAndGlyphs" textLength="62" x="391" y="458.9482">IAM Role</text><!--MD5=[365e74072fecaeb96be3b8550c3cac63]
entity POLICYSNS--><rect fill="#FEFECE" filter="url(#f1agx7p8rv9hf9)" height="62.5938" style="stroke: #A80036; stroke-width: 1.5;" width="144" x="346" y="548.9531"/><rect fill="#FEFECE" height="10" style="stroke: #A80036; stroke-width: 1.5;" width="15" x="470" y="553.9531"/><rect fill="#FEFECE" height="2" style="stroke: #A80036; stroke-width: 1.5;" width="4" x="468" y="555.9531"/><rect fill="#FEFECE" height="2" style="stroke: #A80036; stroke-width: 1.5;" width="4" x="468" y="559.9531"/><text fill="#000000" font-family="sans-serif" font-size="14" lengthAdjust="spacingAndGlyphs" textLength="62" x="361" y="581.9482">Policy to</text><text fill="#000000" font-family="sans-serif" font-size="14" lengthAdjust="spacingAndGlyphs" textLength="104" x="361" y="598.2451">publish to SNS</text><!--MD5=[96a87ccc34bbf63d73d3a65a33494fd9]
entity thing--><rect fill="#FEFECE" filter="url(#f1agx7p8rv9hf9)" height="46.2969" style="stroke: #A80036; stroke-width: 1.5;" width="80" x="555" y="316.9531"/><rect fill="#FEFECE" height="10" style="stroke: #A80036; stroke-width: 1.5;" width="15" x="615" y="321.9531"/><rect fill="#FEFECE" height="2" style="stroke: #A80036; stroke-width: 1.5;" width="4" x="613" y="323.9531"/><rect fill="#FEFECE" height="2" style="stroke: #A80036; stroke-width: 1.5;" width="4" x="613" y="327.9531"/><text fill="#000000" font-family="sans-serif" font-size="14" lengthAdjust="spacingAndGlyphs" textLength="40" x="570" y="349.9482">Thing</text><!--MD5=[c02b6f6c67b224c8b4edd32444db6be3]
entity CERT--><rect fill="#FEFECE" filter="url(#f1agx7p8rv9hf9)" height="46.2969" style="stroke: #A80036; stroke-width: 1.5;" width="110" x="540" y="425.9531"/><rect fill="#FEFECE" height="10" style="stroke: #A80036; stroke-width: 1.5;" width="15" x="630" y="430.9531"/><rect fill="#FEFECE" height="2" style="stroke: #A80036; stroke-width: 1.5;" width="4" x="628" y="432.9531"/><rect fill="#FEFECE" height="2" style="stroke: #A80036; stroke-width: 1.5;" width="4" x="628" y="436.9531"/><text fill="#000000" font-family="sans-serif" font-size="14" lengthAdjust="spacingAndGlyphs" textLength="70" x="555" y="458.9482">Certificte</text><!--MD5=[1c5866089dcd9c6978499d2874aad87d]
entity POLICY--><rect fill="#FEFECE" filter="url(#f1agx7p8rv9hf9)" height="95.1875" style="stroke: #A80036; stroke-width: 1.5;" width="170" x="525" y="532.9531"/><rect fill="#FEFECE" height="10" style="stroke: #A80036; stroke-width: 1.5;" width="15" x="675" y="537.9531"/><rect fill="#FEFECE" height="2" style="stroke: #A80036; stroke-width: 1.5;" width="4" x="673" y="539.9531"/><rect fill="#FEFECE" height="2" style="stroke: #A80036; stroke-width: 1.5;" width="4" x="673" y="543.9531"/><text fill="#000000" font-family="sans-serif" font-size="14" lengthAdjust="spacingAndGlyphs" textLength="62" x="540" y="565.9482">Policy to</text><text fill="#000000" font-family="sans-serif" font-size="14" lengthAdjust="spacingAndGlyphs" textLength="126" x="540" y="582.2451">publish/subscribe</text><text fill="#000000" font-family="sans-serif" font-size="14" lengthAdjust="spacingAndGlyphs" textLength="130" x="540" y="598.542">MQQT message to</text><text fill="#000000" font-family="sans-serif" font-size="14" lengthAdjust="spacingAndGlyphs" textLength="90" x="540" y="614.8389">IOT Gateway</text><!--MD5=[452acf51f8c00f7621067a496ea0aa68]
entity SNSTOPIC--><rect fill="#FEFECE" filter="url(#f1agx7p8rv9hf9)" height="46.2969" style="stroke: #A80036; stroke-width: 1.5;" width="114" x="775" y="316.9531"/><rect fill="#FEFECE" height="10" style="stroke: #A80036; stroke-width: 1.5;" width="15" x="869" y="321.9531"/><rect fill="#FEFECE" height="2" style="stroke: #A80036; stroke-width: 1.5;" width="4" x="867" y="323.9531"/><rect fill="#FEFECE" height="2" style="stroke: #A80036; stroke-width: 1.5;" width="4" x="867" y="327.9531"/><text fill="#000000" font-family="sans-serif" font-size="14" lengthAdjust="spacingAndGlyphs" textLength="74" x="790" y="349.9482">SNS-Topic</text><!--MD5=[f2d68944de91c06f1b06c0cb0dab2c9d]
entity PUSHCHANNELS--><rect fill="#FEFECE" filter="url(#f1agx7p8rv9hf9)" height="46.2969" style="stroke: #A80036; stroke-width: 1.5;" width="138" x="961" y="557.4531"/><rect fill="#FEFECE" height="10" style="stroke: #A80036; stroke-width: 1.5;" width="15" x="1079" y="562.4531"/><rect fill="#FEFECE" height="2" style="stroke: #A80036; stroke-width: 1.5;" width="4" x="1077" y="564.4531"/><rect fill="#FEFECE" height="2" style="stroke: #A80036; stroke-width: 1.5;" width="4" x="1077" y="568.4531"/><text fill="#000000" font-family="sans-serif" font-size="14" lengthAdjust="spacingAndGlyphs" textLength="98" x="976" y="590.4482">PushChannels</text><!--MD5=[8c4a2a73015014196694719745577a08]
entity EMail--><rect fill="#FEFECE" filter="url(#f1agx7p8rv9hf9)" height="46.2969" style="stroke: #A80036; stroke-width: 1.5;" width="77" x="973.5" y="316.9531"/><rect fill="#FEFECE" height="10" style="stroke: #A80036; stroke-width: 1.5;" width="15" x="1030.5" y="321.9531"/><rect fill="#FEFECE" height="2" style="stroke: #A80036; stroke-width: 1.5;" width="4" x="1028.5" y="323.9531"/><rect fill="#FEFECE" height="2" style="stroke: #A80036; stroke-width: 1.5;" width="4" x="1028.5" y="327.9531"/><text fill="#000000" font-family="sans-serif" font-size="14" lengthAdjust="spacingAndGlyphs" textLength="37" x="988.5" y="349.9482">EMail</text><!--MD5=[2a4a9f02db2d080640020709b526018d]
entity SMS--><rect fill="#FEFECE" filter="url(#f1agx7p8rv9hf9)" height="46.2969" style="stroke: #A80036; stroke-width: 1.5;" width="70" x="991" y="425.9531"/><rect fill="#FEFECE" height="10" style="stroke: #A80036; stroke-width: 1.5;" width="15" x="1041" y="430.9531"/><rect fill="#FEFECE" height="2" style="stroke: #A80036; stroke-width: 1.5;" width="4" x="1039" y="432.9531"/><rect fill="#FEFECE" height="2" style="stroke: #A80036; stroke-width: 1.5;" width="4" x="1039" y="436.9531"/><text fill="#000000" font-family="sans-serif" font-size="14" lengthAdjust="spacingAndGlyphs" textLength="30" x="1006" y="458.9482">SMS</text><!--MD5=[5aac74e15cd120f42ea7423444f006e2]
link device to cert--><path d="M96.3415,126.9671 C95.0568,169.9111 92.2198,264.7481 90.8175,311.6261 " fill="none" id="device-&gt;cert" style="stroke: #A80036; stroke-width: 1.0; stroke-dasharray: 7.0,7.0;"/><polygon fill="#A80036" points="90.6619,316.8271,94.9276,307.95,90.8105,311.8293,86.9311,307.7122,90.6619,316.8271" style="stroke: #A80036; stroke-width: 1.0;"/><!--MD5=[66c4f31f8a20c556dc0baeb68868cd9f]
reverse link thing to CERT--><path d="M595,376.5991 C595,392.8631 595,411.6141 595,425.8111 " fill="none" id="thing&lt;-CERT" style="stroke: #A80036; stroke-width: 1.0;"/><polygon fill="#FFFFFF" points="595,363.1231,591,369.1231,595,375.1231,599,369.1231,595,363.1231" style="stroke: #A80036; stroke-width: 1.0;"/><!--MD5=[357f35beacb19e6ddc859301882fabaf]
reverse link CERT to POLICY--><path d="M599.099,485.3451 C600.796,499.9911 602.787,517.1791 604.6,532.8311 " fill="none" id="CERT&lt;-POLICY" style="stroke: #A80036; stroke-width: 1.0;"/><polygon fill="#FFFFFF" points="597.579,472.2151,594.2959,478.6355,598.9597,484.1354,602.2428,477.715,597.579,472.2151" style="stroke: #A80036; stroke-width: 1.0;"/><!--MD5=[16bd3c1ee669582d8f2e3e0701434a32]
reverse link IR to IAMRole--><path d="M438.415,376.1071 C435.813,392.4841 432.796,411.4701 430.518,425.8111 " fill="none" id="IR&lt;-IAMRole" style="stroke: #A80036; stroke-width: 1.0;"/><polygon fill="#FFFFFF" points="440.478,363.1231,435.586,368.4211,438.5949,374.9744,443.4869,369.6765,440.478,363.1231" style="stroke: #A80036; stroke-width: 1.0;"/><!--MD5=[20a0453ca9034f10aca095d6a8703242]
reverse link IAMRole to POLICYSNS--><path d="M424.537,485.3921 C423.158,505.2401 421.455,529.7441 420.133,548.7661 " fill="none" id="IAMRole&lt;-POLICYSNS" style="stroke: #A80036; stroke-width: 1.0;"/><polygon fill="#FFFFFF" points="425.453,472.2151,421.0466,477.9234,424.621,484.1862,429.0274,478.478,425.453,472.2151" style="stroke: #A80036; stroke-width: 1.0;"/><!--MD5=[ab4560db6df8c544f706ce6d35eaf27a]
link cert to CERT--><path d="M129.381,363.0511 C146.832,371.8821 167.923,381.2831 188,386.9531 C337.777,429.2501 384.616,389.8271 536,425.9531 C537.276,426.2581 538.562,426.5821 539.854,426.9231 " fill="none" id="cert-CERT" style="stroke: #A80036; stroke-width: 1.0; stroke-dasharray: 7.0,7.0;"/><!--MD5=[b0ca7fcbe571766edd5b7bc58764c4e4]
link device to iottopic--><path d="M112.052,126.9671 C141.594,170.1721 207.052,265.9041 238.897,312.4771 " fill="none" id="device-&gt;iottopic" style="stroke: #A80036; stroke-width: 1.0;"/><polygon fill="#A80036" points="241.871,316.8271,240.0939,307.1399,239.0492,312.6995,233.4897,311.6548,241.871,316.8271" style="stroke: #A80036; stroke-width: 1.0;"/><text fill="#000000" font-family="sans-serif" font-size="13" lengthAdjust="spacingAndGlyphs" textLength="86" x="223" y="170.02">sends data in</text><text fill="#000000" font-family="sans-serif" font-size="13" lengthAdjust="spacingAndGlyphs" textLength="94" x="221" y="185.1528">MQQT protocol</text><text fill="#000000" font-family="sans-serif" font-size="13" lengthAdjust="spacingAndGlyphs" textLength="204" x="168" y="200.2856">secured communication via TLS</text><!--MD5=[29764b59d064f680de19c885bcd8a4e7]
link iottopic to IR--><path d="M310.086,339.9531 C335.087,339.9531 364.861,339.9531 389.979,339.9531 " fill="none" id="iottopic-&gt;IR" style="stroke: #A80036; stroke-width: 1.0;"/><polygon fill="#A80036" points="395.265,339.9531,386.265,335.9531,390.265,339.9531,386.265,343.9531,395.265,339.9531" style="stroke: #A80036; stroke-width: 1.0;"/><text fill="#000000" font-family="sans-serif" font-size="13" lengthAdjust="spacingAndGlyphs" textLength="49" x="328.25" y="333.02">triggers</text><!--MD5=[5a6f6a0d84fd77d5abb03e28c89ff621]
link IR to SNSTOPIC--><path d="M448.181,316.7301 C455.006,286.4991 471.721,234.8331 509,211.9531 C585.516,164.9921 628.547,176.4341 711,211.9531 C758.246,232.3051 795.649,281.1831 815.743,312.3071 " fill="none" id="IR-&gt;SNSTOPIC" style="stroke: #A80036; stroke-width: 1.0;"/><polygon fill="#A80036" points="818.582,316.7651,817.1237,307.0248,815.8972,312.5471,810.3749,311.3206,818.582,316.7651" style="stroke: #A80036; stroke-width: 1.0;"/><text fill="#000000" font-family="sans-serif" font-size="13" lengthAdjust="spacingAndGlyphs" textLength="45" x="585.5" y="185.02">publish</text><!--MD5=[ffacf9077fc0b963faa5624488485713]
link SNSTOPIC to EMail--><path d="M889.448,339.9531 C914.892,339.9531 944.347,339.9531 968.003,339.9531 " fill="none" id="SNSTOPIC-&gt;EMail" style="stroke: #A80036; stroke-width: 1.0;"/><polygon fill="#A80036" points="973.266,339.9531,964.266,335.9531,968.266,339.9531,964.266,343.9531,973.266,339.9531" style="stroke: #A80036; stroke-width: 1.0;"/><text fill="#000000" font-family="sans-serif" font-size="13" lengthAdjust="spacingAndGlyphs" textLength="47" x="907.75" y="333.02">notifies</text><!--MD5=[a58fb28885191b8bb2a9d01941f3d244]
link EMail to SMS--><path d="M1014.9,363.1231 C1017.3,381.4871 1020.7,407.4551 1023.1,425.8111 " fill="none" id="EMail-SMS" style="stroke: #A80036; stroke-width: 1.0; stroke-dasharray: 7.0,7.0;"/><!--MD5=[54eab1bb08baaef62e6f4a05094bace6]
link SMS to PUSHCHANNELS--><path d="M1026.69,472.2151 C1027.42,495.9351 1028.57,533.2741 1029.31,557.0481 " fill="none" id="SMS-PUSHCHANNELS" style="stroke: #A80036; stroke-width: 1.0; stroke-dasharray: 7.0,7.0;"/><!--MD5=[4329686b0658bd112ea9b0a587f688fb]
@startuml
title Example - AWS IOT

skinparam componentStyle uml2

package "Device" {
  component device
  component "certificate" as cert
}
device ..>cert

package "AWS - IOT" as iot {
  component "IoT Topic" as iottopic
  component "IoT Rule" as IR
  component "IAM Role" as IAMRole
  component "Policy to\npublish to SNS" as POLICYSNS
  package "IoT Thing" as IOTThing {
    component "Thing" as thing
    component "Certificte" as CERT
    component "Policy to \npublish/subscribe \n MQQT message to \n IOT Gateway" as POLICY

  }
  thing o- - CERT
  CERT o-d- POLICY

  IR o-d- IAMRole
  IAMRole o-d- POLICYSNS
}

package "AWS Service - SNS" as Service{
  component "SNS-Topic" as SNSTOPIC
}

package "Subscribers" as Subscribers{  
  component "PushChannels" as PUSHCHANNELS
  component EMail as EMail
  Component SMS as SMS
}

cert .. CERT
device -d-> iottopic : sends data in \n MQQT protocol \n secured communication via TLS
iottopic -r-> IR : triggers
IR -r-> SNSTOPIC : publish
SNSTOPIC -r-> EMail : notifies
EMail .. SMS 
SMS .. PUSHCHANNELS
@enduml

PlantUML version 1.2020.16beta1(Unknown compile time)
(GPL source distribution)
Java Runtime: Java(TM) SE Runtime Environment
JVM: Java HotSpot(TM) 64-Bit Server VM
Default Encoding: UTF-8
Language: en
Country: US
--></g></svg>