<?xml version="1.0" encoding="UTF-8" standalone="no"?><svg xmlns="http://www.w3.org/2000/svg" xmlns:xlink="http://www.w3.org/1999/xlink" contentScriptType="application/ecmascript" contentStyleType="text/css" height="679px" preserveAspectRatio="none" style="width:1189px;height:679px;" version="1.1" viewBox="0 0 1189 679" width="1189px" zoomAndPan="magnify"><defs><filter height="300%" id="f7vckjr33rc8t" width="300%" x="-1" y="-1"><feGaussianBlur result="blurOut" stdDeviation="2.0"/><feColorMatrix in="blurOut" result="blurOut2" type="matrix" values="0 0 0 0 0 0 0 0 0 0 0 0 0 0 0 0 0 0 .4 0"/><feOffset dx="4.0" dy="4.0" in="blurOut2" result="blurOut3"/><feBlend in="SourceGraphic" in2="blurOut3" mode="normal"/></filter></defs><g><text fill="#000000" font-family="sans-serif" font-size="18" lengthAdjust="spacingAndGlyphs" textLength="176" x="497.5" y="16.708">Example - AWS IOT</text><!--MD5=[eba421ac8e20ac42f3ee759fe6c4cf96]
cluster Device--><polygon fill="#FFFFFF" filter="url(#f7vckjr33rc8t)" points="16,26.9531,74,26.9531,81,49.25,164,49.25,164,378.9531,16,378.9531,16,26.9531" style="stroke: #000000; stroke-width: 1.5;"/><line style="stroke: #000000; stroke-width: 1.5;" x1="16" x2="81" y1="49.25" y2="49.25"/><text fill="#000000" font-family="sans-serif" font-size="14" font-weight="bold" lengthAdjust="spacingAndGlyphs" textLength="52" x="20" y="41.9482">Device</text><!--MD5=[5ffbb9a39312e00e581c70d226bbc83f]
cluster iot--><polygon fill="#FFFFFF" filter="url(#f7vckjr33rc8t)" points="188,219.9531,274,219.9531,281,242.25,787,242.25,787,667.9531,188,667.9531,188,219.9531" style="stroke: #000000; stroke-width: 1.5;"/><line style="stroke: #000000; stroke-width: 1.5;" x1="188" x2="281" y1="242.25" y2="242.25"/><text fill="#000000" font-family="sans-serif" font-size="14" font-weight="bold" lengthAdjust="spacingAndGlyphs" textLength="80" x="192" y="234.9482">AWS - IOT</text><!--MD5=[5dde1afecde6723618d60890fe7f2ddc]
cluster IOTThing--><polygon fill="#FFFFFF" filter="url(#f7vckjr33rc8t)" points="561,262.9531,646,262.9531,653,285.25,763,285.25,763,643.9531,561,643.9531,561,262.9531" style="stroke: #000000; stroke-width: 1.5;"/><line style="stroke: #000000; stroke-width: 1.5;" x1="561" x2="653" y1="285.25" y2="285.25"/><text fill="#000000" font-family="sans-serif" font-size="14" font-weight="bold" lengthAdjust="spacingAndGlyphs" textLength="79" x="565" y="277.9482">IOT Thing</text><!--MD5=[9dd75fd92da113d30380b27734fd2f01]
cluster Service--><polygon fill="#FFFFFF" filter="url(#f7vckjr33rc8t)" points="811,262.9531,963,262.9531,970,285.25,973,285.25,973,378.9531,811,378.9531,811,262.9531" style="stroke: #000000; stroke-width: 1.5;"/><line style="stroke: #000000; stroke-width: 1.5;" x1="811" x2="970" y1="285.25" y2="285.25"/><text fill="#000000" font-family="sans-serif" font-size="14" font-weight="bold" lengthAdjust="spacingAndGlyphs" textLength="146" x="815" y="277.9482">AWS Service - SNS</text><!--MD5=[b177375648c0515ac53566b92066499c]
cluster Subscribers--><polygon fill="#FFFFFF" filter="url(#f7vckjr33rc8t)" points="997,262.9531,1098,262.9531,1105,285.25,1167,285.25,1167,619.4531,997,619.4531,997,262.9531" style="stroke: #000000; stroke-width: 1.5;"/><line style="stroke: #000000; stroke-width: 1.5;" x1="997" x2="1105" y1="285.25" y2="285.25"/><text fill="#000000" font-family="sans-serif" font-size="14" font-weight="bold" lengthAdjust="spacingAndGlyphs" textLength="95" x="1001" y="277.9482">Subscribers</text><!--MD5=[002537d386d1f68a9aa978f7fb49d1b7]
entity device--><rect fill="#FEFECE" filter="url(#f7vckjr33rc8t)" height="46.2969" style="stroke: #A80036; stroke-width: 1.5;" width="87" x="53.5" y="80.9531"/><rect fill="#FEFECE" height="10" style="stroke: #A80036; stroke-width: 1.5;" width="15" x="120.5" y="85.9531"/><rect fill="#FEFECE" height="2" style="stroke: #A80036; stroke-width: 1.5;" width="4" x="118.5" y="87.9531"/><rect fill="#FEFECE" height="2" style="stroke: #A80036; stroke-width: 1.5;" width="4" x="118.5" y="91.9531"/><text fill="#000000" font-family="sans-serif" font-size="14" lengthAdjust="spacingAndGlyphs" textLength="47" x="68.5" y="113.9482">device</text><!--MD5=[41cc97cca0fc40f6265874b6ddd0fc3b]
entity cert--><rect fill="#FEFECE" filter="url(#f7vckjr33rc8t)" height="46.2969" style="stroke: #A80036; stroke-width: 1.5;" width="116" x="32" y="316.9531"/><rect fill="#FEFECE" height="10" style="stroke: #A80036; stroke-width: 1.5;" width="15" x="128" y="321.9531"/><rect fill="#FEFECE" height="2" style="stroke: #A80036; stroke-width: 1.5;" width="4" x="126" y="323.9531"/><rect fill="#FEFECE" height="2" style="stroke: #A80036; stroke-width: 1.5;" width="4" x="126" y="327.9531"/><text fill="#000000" font-family="sans-serif" font-size="14" lengthAdjust="spacingAndGlyphs" textLength="76" x="47" y="349.9482">certificate</text><!--MD5=[3f8077c99ae31066b88b1200bd4ca619]
entity DG--><rect fill="#FEFECE" filter="url(#f7vckjr33rc8t)" height="46.2969" style="stroke: #A80036; stroke-width: 1.5;" width="155" x="204.5" y="316.9531"/><rect fill="#FEFECE" height="10" style="stroke: #A80036; stroke-width: 1.5;" width="15" x="339.5" y="321.9531"/><rect fill="#FEFECE" height="2" style="stroke: #A80036; stroke-width: 1.5;" width="4" x="337.5" y="323.9531"/><rect fill="#FEFECE" height="2" style="stroke: #A80036; stroke-width: 1.5;" width="4" x="337.5" y="327.9531"/><text fill="#000000" font-family="sans-serif" font-size="14" lengthAdjust="spacingAndGlyphs" textLength="115" x="219.5" y="349.9482">Device Gateway</text><!--MD5=[ef95eb2210feb4535357f6b1df740c69]
entity IR--><rect fill="#FEFECE" filter="url(#f7vckjr33rc8t)" height="46.2969" style="stroke: #A80036; stroke-width: 1.5;" width="99" x="445.5" y="316.9531"/><rect fill="#FEFECE" height="10" style="stroke: #A80036; stroke-width: 1.5;" width="15" x="524.5" y="321.9531"/><rect fill="#FEFECE" height="2" style="stroke: #A80036; stroke-width: 1.5;" width="4" x="522.5" y="323.9531"/><rect fill="#FEFECE" height="2" style="stroke: #A80036; stroke-width: 1.5;" width="4" x="522.5" y="327.9531"/><text fill="#000000" font-family="sans-serif" font-size="14" lengthAdjust="spacingAndGlyphs" textLength="59" x="460.5" y="349.9482">IOT Rule</text><!--MD5=[b8597a4d83f4f9618e55e64c433cba89]
entity IAMRole--><rect fill="#FEFECE" filter="url(#f7vckjr33rc8t)" height="46.2969" style="stroke: #A80036; stroke-width: 1.5;" width="102" x="428" y="425.9531"/><rect fill="#FEFECE" height="10" style="stroke: #A80036; stroke-width: 1.5;" width="15" x="510" y="430.9531"/><rect fill="#FEFECE" height="2" style="stroke: #A80036; stroke-width: 1.5;" width="4" x="508" y="432.9531"/><rect fill="#FEFECE" height="2" style="stroke: #A80036; stroke-width: 1.5;" width="4" x="508" y="436.9531"/><text fill="#000000" font-family="sans-serif" font-size="14" lengthAdjust="spacingAndGlyphs" textLength="62" x="443" y="458.9482">IAM Role</text><!--MD5=[365e74072fecaeb96be3b8550c3cac63]
entity POLICYSNS--><rect fill="#FEFECE" filter="url(#f7vckjr33rc8t)" height="62.5938" style="stroke: #A80036; stroke-width: 1.5;" width="144" x="398" y="548.9531"/><rect fill="#FEFECE" height="10" style="stroke: #A80036; stroke-width: 1.5;" width="15" x="522" y="553.9531"/><rect fill="#FEFECE" height="2" style="stroke: #A80036; stroke-width: 1.5;" width="4" x="520" y="555.9531"/><rect fill="#FEFECE" height="2" style="stroke: #A80036; stroke-width: 1.5;" width="4" x="520" y="559.9531"/><text fill="#000000" font-family="sans-serif" font-size="14" lengthAdjust="spacingAndGlyphs" textLength="62" x="413" y="581.9482">Policy to</text><text fill="#000000" font-family="sans-serif" font-size="14" lengthAdjust="spacingAndGlyphs" textLength="104" x="413" y="598.2451">publish to SNS</text><!--MD5=[96a87ccc34bbf63d73d3a65a33494fd9]
entity thing--><rect fill="#FEFECE" filter="url(#f7vckjr33rc8t)" height="46.2969" style="stroke: #A80036; stroke-width: 1.5;" width="80" x="622" y="316.9531"/><rect fill="#FEFECE" height="10" style="stroke: #A80036; stroke-width: 1.5;" width="15" x="682" y="321.9531"/><rect fill="#FEFECE" height="2" style="stroke: #A80036; stroke-width: 1.5;" width="4" x="680" y="323.9531"/><rect fill="#FEFECE" height="2" style="stroke: #A80036; stroke-width: 1.5;" width="4" x="680" y="327.9531"/><text fill="#000000" font-family="sans-serif" font-size="14" lengthAdjust="spacingAndGlyphs" textLength="40" x="637" y="349.9482">Thing</text><!--MD5=[c02b6f6c67b224c8b4edd32444db6be3]
entity CERT--><rect fill="#FEFECE" filter="url(#f7vckjr33rc8t)" height="46.2969" style="stroke: #A80036; stroke-width: 1.5;" width="110" x="607" y="425.9531"/><rect fill="#FEFECE" height="10" style="stroke: #A80036; stroke-width: 1.5;" width="15" x="697" y="430.9531"/><rect fill="#FEFECE" height="2" style="stroke: #A80036; stroke-width: 1.5;" width="4" x="695" y="432.9531"/><rect fill="#FEFECE" height="2" style="stroke: #A80036; stroke-width: 1.5;" width="4" x="695" y="436.9531"/><text fill="#000000" font-family="sans-serif" font-size="14" lengthAdjust="spacingAndGlyphs" textLength="70" x="622" y="458.9482">Certificte</text><!--MD5=[1c5866089dcd9c6978499d2874aad87d]
entity POLICY--><rect fill="#FEFECE" filter="url(#f7vckjr33rc8t)" height="95.1875" style="stroke: #A80036; stroke-width: 1.5;" width="170" x="577" y="532.9531"/><rect fill="#FEFECE" height="10" style="stroke: #A80036; stroke-width: 1.5;" width="15" x="727" y="537.9531"/><rect fill="#FEFECE" height="2" style="stroke: #A80036; stroke-width: 1.5;" width="4" x="725" y="539.9531"/><rect fill="#FEFECE" height="2" style="stroke: #A80036; stroke-width: 1.5;" width="4" x="725" y="543.9531"/><text fill="#000000" font-family="sans-serif" font-size="14" lengthAdjust="spacingAndGlyphs" textLength="62" x="592" y="565.9482">Policy to</text><text fill="#000000" font-family="sans-serif" font-size="14" lengthAdjust="spacingAndGlyphs" textLength="126" x="592" y="582.2451">publish/subscribe</text><text fill="#000000" font-family="sans-serif" font-size="14" lengthAdjust="spacingAndGlyphs" textLength="130" x="592" y="598.542">MQQT message to</text><text fill="#000000" font-family="sans-serif" font-size="14" lengthAdjust="spacingAndGlyphs" textLength="90" x="592" y="614.8389">IOT Gateway</text><!--MD5=[452acf51f8c00f7621067a496ea0aa68]
entity SNSTOPIC--><rect fill="#FEFECE" filter="url(#f7vckjr33rc8t)" height="46.2969" style="stroke: #A80036; stroke-width: 1.5;" width="114" x="827" y="316.9531"/><rect fill="#FEFECE" height="10" style="stroke: #A80036; stroke-width: 1.5;" width="15" x="921" y="321.9531"/><rect fill="#FEFECE" height="2" style="stroke: #A80036; stroke-width: 1.5;" width="4" x="919" y="323.9531"/><rect fill="#FEFECE" height="2" style="stroke: #A80036; stroke-width: 1.5;" width="4" x="919" y="327.9531"/><text fill="#000000" font-family="sans-serif" font-size="14" lengthAdjust="spacingAndGlyphs" textLength="74" x="842" y="349.9482">SNS-Topic</text><!--MD5=[f2d68944de91c06f1b06c0cb0dab2c9d]
entity PUSHCHANNELS--><rect fill="#FEFECE" filter="url(#f7vckjr33rc8t)" height="46.2969" style="stroke: #A80036; stroke-width: 1.5;" width="138" x="1013" y="557.4531"/><rect fill="#FEFECE" height="10" style="stroke: #A80036; stroke-width: 1.5;" width="15" x="1131" y="562.4531"/><rect fill="#FEFECE" height="2" style="stroke: #A80036; stroke-width: 1.5;" width="4" x="1129" y="564.4531"/><rect fill="#FEFECE" height="2" style="stroke: #A80036; stroke-width: 1.5;" width="4" x="1129" y="568.4531"/><text fill="#000000" font-family="sans-serif" font-size="14" lengthAdjust="spacingAndGlyphs" textLength="98" x="1028" y="590.4482">PushChannels</text><!--MD5=[8c4a2a73015014196694719745577a08]
entity EMail--><rect fill="#FEFECE" filter="url(#f7vckjr33rc8t)" height="46.2969" style="stroke: #A80036; stroke-width: 1.5;" width="77" x="1025.5" y="316.9531"/><rect fill="#FEFECE" height="10" style="stroke: #A80036; stroke-width: 1.5;" width="15" x="1082.5" y="321.9531"/><rect fill="#FEFECE" height="2" style="stroke: #A80036; stroke-width: 1.5;" width="4" x="1080.5" y="323.9531"/><rect fill="#FEFECE" height="2" style="stroke: #A80036; stroke-width: 1.5;" width="4" x="1080.5" y="327.9531"/><text fill="#000000" font-family="sans-serif" font-size="14" lengthAdjust="spacingAndGlyphs" textLength="37" x="1040.5" y="349.9482">EMail</text><!--MD5=[2a4a9f02db2d080640020709b526018d]
entity SMS--><rect fill="#FEFECE" filter="url(#f7vckjr33rc8t)" height="46.2969" style="stroke: #A80036; stroke-width: 1.5;" width="70" x="1043" y="425.9531"/><rect fill="#FEFECE" height="10" style="stroke: #A80036; stroke-width: 1.5;" width="15" x="1093" y="430.9531"/><rect fill="#FEFECE" height="2" style="stroke: #A80036; stroke-width: 1.5;" width="4" x="1091" y="432.9531"/><rect fill="#FEFECE" height="2" style="stroke: #A80036; stroke-width: 1.5;" width="4" x="1091" y="436.9531"/><text fill="#000000" font-family="sans-serif" font-size="14" lengthAdjust="spacingAndGlyphs" textLength="30" x="1058" y="458.9482">SMS</text><!--MD5=[5aac74e15cd120f42ea7423444f006e2]
link device to cert--><path d="M96.3415,126.9671 C95.0568,169.9111 92.2198,264.7481 90.8175,311.6261 " fill="none" id="device-&gt;cert" style="stroke: #A80036; stroke-width: 1.0; stroke-dasharray: 7.0,7.0;"/><polygon fill="#A80036" points="90.6619,316.8271,94.9276,307.95,90.8105,311.8293,86.9311,307.7122,90.6619,316.8271" style="stroke: #A80036; stroke-width: 1.0;"/><!--MD5=[66c4f31f8a20c556dc0baeb68868cd9f]
reverse link thing to CERT--><path d="M662,376.5991 C662,392.8631 662,411.6141 662,425.8111 " fill="none" id="thing&lt;-CERT" style="stroke: #A80036; stroke-width: 1.0;"/><polygon fill="#FFFFFF" points="662,363.1231,658,369.1231,662,375.1231,666,369.1231,662,363.1231" style="stroke: #A80036; stroke-width: 1.0;"/><!--MD5=[357f35beacb19e6ddc859301882fabaf]
reverse link CERT to POLICY--><path d="M662,485.3451 C662,499.9911 662,517.1791 662,532.8311 " fill="none" id="CERT&lt;-POLICY" style="stroke: #A80036; stroke-width: 1.0;"/><polygon fill="#FFFFFF" points="662,472.2151,658,478.2151,662,484.2151,666,478.2151,662,472.2151" style="stroke: #A80036; stroke-width: 1.0;"/><!--MD5=[16bd3c1ee669582d8f2e3e0701434a32]
reverse link IR to IAMRole--><path d="M489.743,376.1071 C487.294,392.4841 484.455,411.4701 482.311,425.8111 " fill="none" id="IR&lt;-IAMRole" style="stroke: #A80036; stroke-width: 1.0;"/><polygon fill="#FFFFFF" points="491.685,363.1231,486.8421,368.466,489.9114,374.9913,494.7542,369.6484,491.685,363.1231" style="stroke: #A80036; stroke-width: 1.0;"/><!--MD5=[20a0453ca9034f10aca095d6a8703242]
reverse link IAMRole to POLICYSNS--><path d="M476.537,485.3921 C475.158,505.2401 473.455,529.7441 472.133,548.7661 " fill="none" id="IAMRole&lt;-POLICYSNS" style="stroke: #A80036; stroke-width: 1.0;"/><polygon fill="#FFFFFF" points="477.453,472.2151,473.0466,477.9234,476.621,484.1862,481.0274,478.478,477.453,472.2151" style="stroke: #A80036; stroke-width: 1.0;"/><!--MD5=[6016488370827645d8b195bbb979996c]
link device to DG--><path d="M114.404,126.9671 C148.631,170.2591 224.553,266.2901 261.29,312.7581 " fill="none" id="device-&gt;DG" style="stroke: #A80036; stroke-width: 1.0;"/><polygon fill="#A80036" points="264.507,316.8271,262.0631,307.2863,261.406,312.9049,255.7875,312.2478,264.507,316.8271" style="stroke: #A80036; stroke-width: 1.0;"/><text fill="#000000" font-family="sans-serif" font-size="13" lengthAdjust="spacingAndGlyphs" textLength="86" x="233" y="170.02">sends data in</text><text fill="#000000" font-family="sans-serif" font-size="13" lengthAdjust="spacingAndGlyphs" textLength="94" x="231" y="185.1528">MQQT protocol</text><text fill="#000000" font-family="sans-serif" font-size="13" lengthAdjust="spacingAndGlyphs" textLength="204" x="178" y="200.2856">secured communication via TLS</text><!--MD5=[d209f8de00b81f990a30521637b4cce0]
link DG to IR--><path d="M359.5,339.9531 C386.264,339.9531 415.671,339.9531 440.231,339.9531 " fill="none" id="DG-&gt;IR" style="stroke: #A80036; stroke-width: 1.0;"/><polygon fill="#A80036" points="445.396,339.9531,436.396,335.9531,440.396,339.9531,436.396,343.9531,445.396,339.9531" style="stroke: #A80036; stroke-width: 1.0;"/><text fill="#000000" font-family="sans-serif" font-size="13" lengthAdjust="spacingAndGlyphs" textLength="49" x="378" y="333.02">triggers</text><!--MD5=[5a6f6a0d84fd77d5abb03e28c89ff621]
link IR to SNSTOPIC--><path d="M499.359,316.7171 C506.418,286.4721 523.532,234.7891 561,211.9531 C637.661,165.2291 680.547,176.4341 763,211.9531 C810.246,232.3051 847.649,281.1831 867.743,312.3071 " fill="none" id="IR-&gt;SNSTOPIC" style="stroke: #A80036; stroke-width: 1.0;"/><polygon fill="#A80036" points="870.582,316.7651,869.1237,307.0248,867.8972,312.5471,862.3749,311.3206,870.582,316.7651" style="stroke: #A80036; stroke-width: 1.0;"/><text fill="#000000" font-family="sans-serif" font-size="13" lengthAdjust="spacingAndGlyphs" textLength="45" x="637.5" y="185.02">publish</text><!--MD5=[ffacf9077fc0b963faa5624488485713]
link SNSTOPIC to EMail--><path d="M941.448,339.9531 C966.892,339.9531 996.347,339.9531 1020,339.9531 " fill="none" id="SNSTOPIC-&gt;EMail" style="stroke: #A80036; stroke-width: 1.0;"/><polygon fill="#A80036" points="1025.27,339.9531,1016.27,335.9531,1020.27,339.9531,1016.27,343.9531,1025.27,339.9531" style="stroke: #A80036; stroke-width: 1.0;"/><text fill="#000000" font-family="sans-serif" font-size="13" lengthAdjust="spacingAndGlyphs" textLength="47" x="959.75" y="333.02">notifies</text><!--MD5=[a58fb28885191b8bb2a9d01941f3d244]
link EMail to SMS--><path d="M1066.9,363.1231 C1069.3,381.4871 1072.7,407.4551 1075.1,425.8111 " fill="none" id="EMail-SMS" style="stroke: #A80036; stroke-width: 1.0; stroke-dasharray: 7.0,7.0;"/><!--MD5=[54eab1bb08baaef62e6f4a05094bace6]
link SMS to PUSHCHANNELS--><path d="M1078.69,472.2151 C1079.42,495.9351 1080.57,533.2741 1081.31,557.0481 " fill="none" id="SMS-PUSHCHANNELS" style="stroke: #A80036; stroke-width: 1.0; stroke-dasharray: 7.0,7.0;"/><!--MD5=[e52f8628ee3da56d5c131268de7c83f0]
@startuml
title Example - AWS IOT

skinparam componentStyle uml2

package "Device" {
  component device
  component "certificate" as cert
}
device ..>cert

package "AWS - IOT" as iot {
  component "Device Gateway" as DG
  component "IOT Rule" as IR
  component "IAM Role" as IAMRole
  component "Policy to\npublish to SNS" as POLICYSNS
  package "IOT Thing" as IOTThing {
    component "Thing" as thing
    component "Certificte" as CERT
    component "Policy to \npublish/subscribe \n MQQT message to \n IOT Gateway" as POLICY

  }
  thing o- - CERT
  CERT o-d- POLICY

  IR o-d- IAMRole
  IAMRole o-d- POLICYSNS
}

package "AWS Service - SNS" as Service{
  component "SNS-Topic" as SNSTOPIC
}

package "Subscribers" as Subscribers{  
  component "PushChannels" as PUSHCHANNELS
  component EMail as EMail
  Component SMS as SMS
}

device -d-> DG : sends data in \n MQQT protocol \n secured communication via TLS
DG -r-> IR : triggers
IR -r-> SNSTOPIC : publish
SNSTOPIC -r-> EMail : notifies
EMail .. SMS 
SMS .. PUSHCHANNELS
@enduml

PlantUML version 1.2020.16beta1(Unknown compile time)
(GPL source distribution)
Java Runtime: Java(TM) SE Runtime Environment
JVM: Java HotSpot(TM) 64-Bit Server VM
Default Encoding: UTF-8
Language: en
Country: US
--></g></svg>